<svg height="32" viewBox="0 0 40 32" width="40" xmlns="http://www.w3.org/2000/svg"><path d="m411 127.997831c-5.599184 2.776586-8.398733 6.039027-8.398733 9.787418 2.386537.277659 4.35999 1.261019 5.920418 2.950109s2.340631 3.64424 2.340631 5.86551c0 2.360098-.757255 4.349955-2.271789 5.969631-1.514533 1.619675-3.419145 2.429501-5.713892 2.429501-2.570117 0-4.795989-1.052773-6.677681-3.158351-1.881693-2.105579-2.822526-4.662314-2.822526-7.670282 0-9.023907 5.002475-16.080958 15.007573-21.171367zm-22.376428 0c-5.645079 2.776586-8.467576 6.039027-8.467576 9.787418 2.432432.277659 4.428833 1.261019 5.989261 2.950109s2.34063 3.64424 2.34063 5.86551c0 2.360098-.768728 4.349955-2.306209 5.969631-1.537481 1.619675-3.453566 2.429501-5.748314 2.429501-2.570117 0-4.784515-1.052773-6.64326-3.158351-1.858745-2.105579-2.788104-4.662314-2.788104-7.670282 0-9.023907 4.979527-16.080958 14.938731-21.171367z" fill="#ef3934" fill-rule="evenodd" transform="translate(-371 -123)"/></svg>